<svg width="56" height="54" viewBox="0 0 56 54" fill="none" xmlns="http://www.w3.org/2000/svg">
<path d="M28.5 16C32.6421 16 36 12.6421 36 8.5C36 4.35786 32.6421 1 28.5 1C24.3579 1 21 4.35786 21 8.5C21 12.6421 24.3579 16 28.5 16Z" stroke="#4F4F4F" stroke-width="2" stroke-miterlimit="10"/>
<path d="M48 48C51.866 48 55 44.6421 55 40.5C55 36.3579 51.866 33 48 33C44.134 33 41 36.3579 41 40.5C41 44.6421 44.134 48 48 48Z" stroke="#4F4F4F" stroke-width="2" stroke-miterlimit="10"/>
<path d="M8.5 48C12.6421 48 16 44.6421 16 40.5C16 36.3579 12.6421 33 8.5 33C4.35786 33 1 36.3579 1 40.5C1 44.6421 4.35786 48 8.5 48Z" stroke="#4F4F4F" stroke-width="2" stroke-miterlimit="10"/>
<path d="M13 46C17.1451 50.4878 22.7077 53 28.5 53C34.2922 53 39.8549 50.4878 44 46" stroke="#4F4F4F" stroke-width="2" stroke-miterlimit="10"/>
<path d="M36 10C40.0914 11.5191 43.6393 14.3718 46.1488 18.1603C48.6584 21.9488 50.0044 26.4841 49.9992 31.1336C50.0079 32.0931 49.943 33.0519 49.8051 34" stroke="#4F4F4F" stroke-width="2" stroke-miterlimit="10"/>
<path d="M5.2227 34C5.06518 33.0488 4.99099 32.0869 5.00087 31.1242C5.01221 26.4729 6.55857 21.9403 9.42544 18.155C12.2923 14.3698 16.3376 11.5197 21 10" stroke="#4F4F4F" stroke-width="2" stroke-miterlimit="10"/>
</svg>
