<svg width="24" height="22" viewBox="0 0 24 22" fill="none" xmlns="http://www.w3.org/2000/svg">
<path d="M17.1115 5.67742C17.1115 8.52919 14.7595 10.8548 11.8409 10.8548C8.92234 10.8548 6.57031 8.52919 6.57031 5.67742C6.57031 2.82565 8.92234 0.5 11.8409 0.5C14.7595 0.5 17.1115 2.82565 17.1115 5.67742Z" stroke="#212424"/>
<path d="M23.391 21.0729C23.4193 21.2747 23.2551 21.5 22.96 21.5H12.46H1.90618C1.61828 21.5 1.466 21.2907 1.48224 21.1151C1.5469 20.416 1.75236 19.7209 2.09853 19.0503C2.58479 18.1083 3.34056 17.2308 4.33369 16.4759C5.32685 15.721 6.53262 15.1077 7.88318 14.6779C9.23344 14.2482 10.6958 14.0124 12.1832 13.9863C13.6707 13.9603 15.1486 14.1446 16.5288 14.5268C17.9093 14.9092 19.159 15.4803 20.2067 16.2014C21.2544 16.9225 22.0738 17.7751 22.6278 18.7024C23.0096 19.3414 23.2731 20.2301 23.391 21.0729Z" stroke="#212424"/>
</svg>
